<?xml version="1.0" standalone="no"?>
<!DOCTYPE svg PUBLIC "-//W3C//DTD SVG 20010904//EN"
 "http://www.w3.org/TR/2001/REC-SVG-20010904/DTD/svg10.dtd">
<svg version="1.0" xmlns="http://www.w3.org/2000/svg"
 width="300.000000pt" height="298.000000pt" viewBox="0 0 300.000000 298.000000"
 preserveAspectRatio="xMidYMid meet">

<g transform="translate(0.000000,298.000000) scale(0.100000,-0.100000)"
fill="#fff" stroke="none">
<path d="M895 2278 c-49 -18 -83 -47 -112 -96 l-28 -47 -3 -540 c-2 -297 0
-555 3 -573 7 -38 40 -72 71 -72 12 0 33 9 48 21 l26 20 0 544 c0 577 1 590
47 601 49 13 -10 49 1030 -625 166 -107 164 -118 -46 -256 -677 -442 -928
-599 -958 -599 -42 0 -62 19 -70 67 -7 49 -34 77 -72 77 -49 0 -73 -28 -73
-86 0 -80 44 -151 117 -186 83 -41 159 -28 277 46 219 138 993 641 1019 663
72 61 92 172 48 261 -21 40 -42 59 -144 127 -265 176 -972 629 -1010 646 -44
20 -123 23 -170 7z"/>
</g>
</svg>
