<?xml version="1.0" standalone="no"?>
<!DOCTYPE svg PUBLIC "-//W3C//DTD SVG 20010904//EN"
 "http://www.w3.org/TR/2001/REC-SVG-20010904/DTD/svg10.dtd">
<svg version="1.0" xmlns="http://www.w3.org/2000/svg"
 width="300.000000pt" height="298.000000pt" viewBox="0 0 300.000000 298.000000"
 preserveAspectRatio="xMidYMid meet">

<g transform="translate(0.000000,298.000000) scale(0.100000,-0.100000)"
fill="#fe00ea" stroke="none">
<path d="M1380 2675 c-8 -2 -49 -9 -90 -15 -173 -28 -359 -110 -511 -224 -240
-181 -401 -450 -455 -760 -32 -180 -1 -486 61 -605 31 -61 100 -64 127 -6 9
20 6 40 -15 112 -82 271 -58 540 68 790 316 625 1152 768 1659 284 213 -205
326 -468 326 -763 0 -194 -47 -367 -149 -543 -61 -105 -245 -292 -346 -350
-178 -103 -317 -145 -508 -153 -143 -5 -239 7 -362 45 -163 51 -288 127 -421
255 -103 100 -135 111 -174 61 -32 -41 -19 -68 78 -164 178 -175 378 -278 627
-324 134 -25 366 -17 498 18 215 57 377 150 538 307 238 233 359 520 359 850
0 565 -391 1044 -952 1166 -66 14 -321 28 -358 19z"/>
<path d="M1176 1959 l-26 -20 0 -450 c0 -436 1 -450 20 -469 26 -26 74 -26
100 0 19 19 20 33 20 465 l0 446 -25 24 c-30 30 -54 31 -89 4z"/>
<path d="M1735 1955 l-25 -24 0 -446 c0 -432 1 -446 20 -465 26 -26 74 -26
100 0 19 19 20 33 20 469 l0 450 -26 20 c-35 27 -59 26 -89 -4z"/>
</g>
</svg>
