<?xml version="1.0" standalone="no"?>
<!DOCTYPE svg PUBLIC "-//W3C//DTD SVG 20010904//EN"
 "http://www.w3.org/TR/2001/REC-SVG-20010904/DTD/svg10.dtd">
<svg version="1.0" xmlns="http://www.w3.org/2000/svg"
 width="2917.000000pt" height="2334.000000pt" viewBox="0 0 2917.000000 2334.000000"
 preserveAspectRatio="xMidYMid meet">

<g transform="translate(0.000000,2334.000000) scale(0.100000,-0.100000)"
fill="#fe00ea" stroke="none">
<path d="M14140 22774 c-817 -44 -1414 -126 -2095 -285 -251 -59 -757 -198
-771 -212 -8 -8 462 -1497 472 -1497 6 0 98 25 205 56 677 194 1357 309 2099
354 91 5 332 10 535 10 589 0 1068 -39 1599 -130 1765 -302 3365 -1070 4726
-2268 207 -182 641 -618 822 -824 758 -868 1318 -1784 1733 -2838 234 -594
418 -1262 524 -1908 189 -1144 169 -2303 -59 -3442 -492 -2461 -1955 -4641
-4055 -6045 -1906 -1275 -4195 -1815 -6483 -1529 -2800 349 -5291 1924 -6838
4324 -183 283 -332 548 -508 900 -772 1549 -1104 3288 -961 5035 41 497 126
1010 250 1505 24 96 42 176 41 178 -9 9 -1501 402 -1511 398 -22 -8 -153 -577
-219 -956 -124 -710 -173 -1336 -163 -2089 6 -429 12 -552 42 -881 112 -1196
414 -2359 901 -3460 96 -218 323 -674 444 -890 795 -1426 1881 -2650 3201
-3607 1553 -1128 3384 -1834 5289 -2042 803 -88 1646 -88 2450 0 1559 169
3080 676 4430 1477 1824 1080 3310 2668 4265 4557 616 1220 1000 2537 1134
3900 40 407 46 548 46 1115 0 548 -4 646 -41 1050 -111 1211 -437 2433 -951
3560 -444 973 -1059 1919 -1777 2733 -1479 1675 -3427 2868 -5571 3412 -660
168 -1285 268 -1995 321 -191 14 -1048 27 -1210 18z"/>
<path d="M7395 19954 c-668 -68 -1188 -531 -1330 -1184 -22 -102 -31 -371 -16
-485 46 -348 204 -657 458 -895 199 -186 443 -312 723 -371 140 -30 419 -33
555 -6 310 61 562 194 781 412 208 207 335 433 401 715 31 133 42 392 23 533
-85 632 -561 1136 -1186 1257 -102 19 -324 33 -409 24z"/>
<path d="M12590 11670 c0 -2861 4 -4630 9 -4628 23 8 5761 4623 5760 4632 0
12 -5729 4613 -5754 4622 -13 5 -15 -541 -15 -4626z"/>
</g>
</svg>
