<?xml version="1.0" standalone="no"?>
<!DOCTYPE svg PUBLIC "-//W3C//DTD SVG 20010904//EN"
 "http://www.w3.org/TR/2001/REC-SVG-20010904/DTD/svg10.dtd">
<svg version="1.0" xmlns="http://www.w3.org/2000/svg"
 width="300.000000pt" height="298.000000pt" viewBox="0 0 300.000000 298.000000"
 preserveAspectRatio="xMidYMid meet">

<g transform="translate(0.000000,298.000000) scale(0.100000,-0.100000)"
fill="#fff" stroke="none">
<path d="M1969 2276 c-52 -14 -44 -9 -664 -409 -247 -160 -463 -302 -478 -316
-79 -72 -92 -191 -32 -282 23 -36 105 -91 860 -577 286 -185 308 -196 384
-190 105 7 183 73 202 169 12 66 11 1080 -1 1116 -10 28 -45 53 -74 53 -7 0
-25 -9 -40 -21 l-26 -20 0 -544 c0 -577 -1 -590 -47 -601 -49 -13 10 -49
-1030 625 -56 36 -107 76 -113 89 -24 53 -53 32 835 604 257 166 290 181 329
149 9 -8 19 -32 23 -54 7 -49 34 -77 71 -77 120 0 92 204 -36 269 -52 26 -109
32 -163 17z"/>
</g>
</svg>
